# xmcd
#
# Track frame offsets: 
#        183
#        12393
#        36868
#        64908
#        87768
#        104155
#        122025
#        134500
#        146665
#        168853
#        182735
#        201410
#        212340
#        235953
#        261758
#
# Disc length: 3881 seconds
#
# Revision: 3
# Processed by: cddbd v1.5PL3 Copyright (c) Steve Scherf et al.
# Submitted via: ExactAudioCopy v0.95a3
#
DISCID=de0f270f
DTITLE=Mark O' Connor - The New Nashville Cats
DYEAR=1991
DGENRE=Country
TTITLE0=Bowtie
TTITLE1=Restless
TTITLE2=Nashville Shuffle Boogie
TTITLE3=Pick It Apart
TTITLE4=Traveller's Ridge
TTITLE5=Granny White Special
TTITLE6=Cat In The Bag
TTITLE7=The Ballad Of Sally Anne
TTITLE8=Swang
TTITLE9=Dance Of The Ol' Swamp Rat
TTITLE10=A Bowl Of Bula
TTITLE11=Limerock
TTITLE12=Sweet Suzanne
TTITLE13=Orange Blossom Special
TTITLE14=Now It Belongs To You
EXTD=
EXTT0=
EXTT1=
EXTT2=
EXTT3=
EXTT4=
EXTT5=
EXTT6=
EXTT7=
EXTT8=
EXTT9=
EXTT10=
EXTT11=
EXTT12=
EXTT13=
EXTT14=
PLAYORDER=
